<?xml version="1.0" encoding="UTF-8"?>
<svg id="_レイヤー_2" data-name="レイヤー_2" xmlns="http://www.w3.org/2000/svg" viewBox="0 0 78.59 12.42">
  <g id="_レイヤー_1-2" data-name="レイヤー_1">
    <g>
      <path d="M0,6.21C0,2.63,2.63,0,6.36,0c2.92,0,5.17,1.61,6.01,4.04h-2.59c-.64-1.15-1.88-1.86-3.42-1.86-2.37,0-3.98,1.7-3.98,4.04s1.61,4.05,3.98,4.05c1.86,0,3.23-.86,3.82-2.48h-4.55v-2.08h7.07v1.11c-.27,3.27-2.83,5.61-6.34,5.61-3.73,0-6.36-2.63-6.36-6.21Z"/>
      <path d="M14.61.24h5c3.03,0,4.37,1.66,4.37,3.95,0,1.88-.9,3.18-2.5,3.71l2.94,4.29h-2.78l-2.54-4.04h-2.16v4.04h-2.34V.24ZM19.65,5.97c1.48,0,1.97-.77,1.97-1.79s-.49-1.77-1.97-1.77h-2.7v3.56h2.7Z"/>
      <path d="M25.62,6.21c0-3.58,2.63-6.21,6.36-6.21s6.36,2.63,6.36,6.21-2.63,6.21-6.36,6.21-6.36-2.63-6.36-6.21ZM35.96,6.21c0-2.34-1.61-4.04-3.98-4.04s-3.98,1.7-3.98,4.04,1.61,4.05,3.98,4.05,3.98-1.72,3.98-4.05Z"/>
      <path d="M40.09,7.93V.24h2.34v7.69c0,1.64.88,2.32,2.03,2.32s2.03-.69,2.03-2.32V.24h2.34v7.69c0,1.63.88,2.32,2.03,2.32s2.03-.68,2.03-2.32V.24h2.34v7.69c0,3.07-1.81,4.49-4.16,4.49-1.52,0-2.7-.64-3.4-1.83-.69,1.19-1.88,1.83-3.4,1.83-2.36,0-4.16-1.42-4.16-4.49Z"/>
      <path d="M60.4,2.41h-3.56V.24h9.46v2.17h-3.56v9.77h-2.34V2.41Z"/>
      <path d="M68.2.24h2.34v4.8h5.72V.24h2.34v11.95h-2.34v-4.99h-5.72v4.99h-2.34V.24Z"/>
    </g>
  </g>
</svg>