<?xml version="1.0" encoding="UTF-8"?>
<svg id="_レイヤー_2" data-name="レイヤー_2" xmlns="http://www.w3.org/2000/svg" viewBox="0 0 148.1 22.14">
  <defs>
    <style>
      .cls-1 {
        fill: #fff;
      }
    </style>
  </defs>
  <g id="_レイヤー_1-2" data-name="レイヤー_1">
    <rect class="cls-1" y="0" width="1.97" height="21.74"/>
    <g>
      <path class="cls-1" d="M6.17,13.84c0-5.02,3-7.63,7.47-7.63s7.47,2.6,7.47,7.63v7.9h-2.05v-7.9c0-3.74-2.14-5.73-5.42-5.73s-5.42,1.99-5.42,5.73v7.9h-2.05v-7.9Z"/>
      <path class="cls-1" d="M32.26,16.17V1.25h2.05v5.36h8.91v1.87h-8.91v7.69c0,2.76,1.53,4.07,3.89,4.07s3.89-1.29,3.89-4.07v-.34h1.99v.34c0,3.98-2.39,5.97-5.88,5.97s-5.94-1.99-5.94-5.97Z"/>
      <path class="cls-1" d="M47.14,0h2.05v9.55c1.07-2.17,3.09-3.34,5.73-3.34,4.04,0,7.17,2.45,7.17,7.63v7.9h-2.05v-7.9c0-3.74-2.14-5.73-5.42-5.73s-5.42,2.05-5.42,5.73v7.9h-2.05V0Z"/>
      <path class="cls-1" d="M64.48,14.18c0-4.59,3.37-7.96,8.15-7.96s8.08,3.37,8.08,7.96v.67h-14.12c.28,3.15,2.63,5.39,6.03,5.39,2.39,0,4.23-.98,5.21-2.73h2.24c-1.16,2.79-3.92,4.63-7.44,4.63-4.78,0-8.15-3.37-8.15-7.96ZM78.56,13.01c-.49-3.06-2.88-4.9-5.94-4.9s-5.51,1.93-5.97,4.9h11.91Z"/>
      <path class="cls-1" d="M91.79,1.71h8.67c4.84,0,6.98,2.7,6.98,6.37s-2.17,6.4-6.98,6.4h-6.46v7.26h-2.21V1.71ZM100.49,12.46c3.46,0,4.72-1.9,4.72-4.38s-1.26-4.35-4.72-4.35h-6.49v8.73h6.49Z"/>
      <path class="cls-1" d="M109.12,11.73c0-6,4.41-10.41,10.66-10.41s10.66,4.41,10.66,10.41-4.41,10.41-10.66,10.41-10.66-4.41-10.66-10.41ZM128.23,11.73c0-4.84-3.46-8.39-8.45-8.39s-8.45,3.55-8.45,8.39,3.46,8.39,8.45,8.39,8.45-3.55,8.45-8.39Z"/>
      <path class="cls-1" d="M139.1,3.74h-6.8V1.71h15.8v2.02h-6.8v18.01h-2.21V3.74Z"/>
    </g>
  </g>
</svg>