<?xml version="1.0" encoding="UTF-8"?>
<svg id="_レイヤー_2" data-name="レイヤー_2" xmlns="http://www.w3.org/2000/svg" viewBox="0 0 460.04 36.37">
  <defs>
    <style>
      .cls-1 {
        fill: #fff;
      }
    </style>
  </defs>
  <g id="_レイヤー_1-2" data-name="レイヤー_1">
    <rect class="cls-1" y="0" width="220.01" height="35.71"/>
    <g>
      <path class="cls-1" d="M226.91,22.74c0-8.25,4.93-12.53,12.27-12.53s12.27,4.28,12.27,12.53v12.98h-3.37v-12.98c0-6.14-3.52-9.41-8.9-9.41s-8.9,3.27-8.9,9.41v12.98h-3.37v-12.98Z"/>
      <path class="cls-1" d="M269.76,26.56V2.06h3.37v8.8h14.64v3.07h-14.64v12.63c0,4.53,2.52,6.69,6.39,6.69s6.39-2.11,6.39-6.69v-.55h3.27v.55c0,6.54-3.92,9.81-9.66,9.81s-9.76-3.27-9.76-9.81Z"/>
      <path class="cls-1" d="M294.21,0h3.37v15.69c1.76-3.57,5.08-5.48,9.41-5.48,6.64,0,11.77,4.02,11.77,12.53v12.98h-3.37v-12.98c0-6.14-3.52-9.41-8.9-9.41s-8.9,3.37-8.9,9.41v12.98h-3.37V0Z"/>
      <path class="cls-1" d="M322.67,23.29c0-7.54,5.53-13.08,13.38-13.08s13.28,5.53,13.28,13.08v1.11h-23.19c.45,5.18,4.33,8.85,9.91,8.85,3.92,0,6.94-1.61,8.55-4.48h3.67c-1.91,4.58-6.44,7.6-12.22,7.6-7.85,0-13.38-5.53-13.38-13.08ZM345.81,21.38c-.8-5.03-4.73-8.05-9.76-8.05s-9.05,3.17-9.81,8.05h19.57Z"/>
      <path class="cls-1" d="M367.54,2.82h14.24c7.95,0,11.47,4.43,11.47,10.46s-3.57,10.51-11.47,10.51h-10.61v11.92h-3.62V2.82ZM381.82,20.47c5.68,0,7.75-3.12,7.75-7.19s-2.06-7.14-7.75-7.14h-10.66v14.34h10.66Z"/>
      <path class="cls-1" d="M396.01,19.26c0-9.86,7.24-17.1,17.51-17.1s17.5,7.24,17.5,17.1-7.24,17.1-17.5,17.1-17.51-7.24-17.51-17.1ZM427.39,19.26c0-7.95-5.68-13.78-13.88-13.78s-13.88,5.83-13.88,13.78,5.68,13.78,13.88,13.78,13.88-5.83,13.88-13.78Z"/>
      <path class="cls-1" d="M445.25,6.14h-11.17v-3.32h25.95v3.32h-11.17v29.58h-3.62V6.14Z"/>
    </g>
  </g>
</svg>